<?xml version="1.0" encoding="utf-8"?>
<!-- Generator: Adobe Illustrator 18.0.0, SVG Export Plug-In . SVG Version: 6.00 Build 0)  -->
<!DOCTYPE svg PUBLIC "-//W3C//DTD SVG 1.1//EN" "http://www.w3.org/Graphics/SVG/1.1/DTD/svg11.dtd">
<svg version="1.1" id="Layer_1" xmlns="http://www.w3.org/2000/svg" xmlns:xlink="http://www.w3.org/1999/xlink" x="0px" y="0px"
	 viewBox="0 0 1700 1400" enable-background="new 0 0 1700 1400" xml:space="preserve">
<g>
	<rect fill="#FF484B" width="1700" height="1400"/>
	<path fill="#CE2830" d="M1583.7,983.3l-153.1-195h-39.7l-13.8-130.8h-19.6l-8.7-93l46.4-110.9c14.6-34.8,14.6-73.1,0-107.9
		c-14.6-34.8-41.9-61.7-77-75.6l-66.2-26.4c-37.7-20.8-80.3-31.7-123.3-31.7s-85.6,10.9-123.3,31.7l-64.8,25.9
		c-35.4,14.1-64.1,41.7-78.7,76.9c-2.9,7-5.2,14.1-6.9,21.3L773.8,449c-14.6-3-29.4-4.5-44.6-4.5c-15.1,0-30,1.5-44.6,4.5
		l-74.5-74.5c-37.2-37.2-100.9-10.9-100.9,41.8v248.2c0,12.7,1.1,25.4,3.3,37.9c3.5,19.9,9.7,39.3,18.5,57.6
		c-11.5,7.6-21.5,17.2-29.6,28.4h-26L294,979.9c-29.5,31.1-7.4,82.4,35.5,82.4h109v222H1464v-222h81.3
		C1586.1,1062.3,1608.9,1015.4,1583.7,983.3z"/>
	<g>
		<path fill="#FFFFFF" d="M351,1236.2v-222h-109c-42.9,0-64.9-51.3-35.5-82.4l181.5-191.6h26c8-11.2,18-20.8,29.6-28.4
			c-8.8-18.2-15.1-37.7-18.5-57.6c-2.2-12.5-3.3-25.2-3.3-37.9V368.1c0-52.7,63.7-79.1,100.9-41.8l74.5,74.5
			c14.6-3,29.4-4.5,44.6-4.5c15.1,0,30,1.5,44.6,4.5l81.2-81.2c1.7-7.2,4-14.3,6.9-21.3c14.6-35.2,43.3-62.8,78.7-76.9l64.8-25.9
			c37.7-20.8,80.3-31.7,123.3-31.7c43.1,0,85.6,10.9,123.3,31.7l66.2,26.4c35,14,62.4,40.8,77,75.6c14.6,34.8,14.6,73.1,0,107.9
			l-46.4,110.9l8.7,93h19.6l13.8,130.8h39.7l153.1,195c25.2,32,2.3,79-38.4,79h-81.3v222H351z"/>
		<g>
			<polygon fill="#2CCEE0" points="1098.7,805.1 1191.7,805.1 1214.6,805.1 1209.7,752.9 855.6,752.9 850.6,805.1 967.3,805.1 			
				"/>
			<path fill="#2CCEE0" d="M1177.2,407l10.2-17.5l-59.6-135.2c-59-34-131.5-34-190.5,0l0,0l-59.6,135.2L888,407l-25.1,267.4h339.4
				L1177.2,407z M1094.1,319.3c9.3,0,16.9,7.6,16.9,16.9s-7.6,16.9-16.9,16.9s-16.9-7.6-16.9-16.9S1084.8,319.3,1094.1,319.3z
				 M971.1,319.3c9.3,0,16.9,7.6,16.9,16.9s-7.6,16.9-16.9,16.9s-16.9-7.6-16.9-16.9S961.8,319.3,971.1,319.3z M1094.3,537.4
				c-2.2,0-4.4-0.1-6.6-0.3V602c0,30.4-24.7,55.1-55.1,55.1h0c-30.4,0-55.1-24.7-55.1-55.1v-64.9c-2.2,0.2-4.4,0.3-6.6,0.3
				c-41,0-74.3-33.3-74.3-74.3c0-41,33.3-74.3,74.3-74.3h26.3h70.8h26.3c41,0,74.3,33.3,74.3,74.3
				C1168.6,504.1,1135.4,537.4,1094.3,537.4z"/>
			<polygon fill="#281F3B" points="1230.8,752.9 1222.6,674.3 1202.3,674.3 862.9,674.3 842.7,674.3 834.4,752.9 855.6,752.9 
				1209.7,752.9 			"/>
			<polygon fill="#A73840" points="1080.4,949.2 967.3,805.1 967.3,977 1098.7,977 1098.7,949.2 			"/>
			<rect x="967.3" y="805.1" fill="#A73840" width="131.3" height="0"/>
			<rect x="967.3" y="977" fill="#D3575B" width="131.3" height="194.2"/>
			<rect x="1191.7" y="949.2" fill="#A73840" width="111.3" height="27.8"/>
			<polygon fill="#A73840" points="1191.7,805.1 1302.9,805.1 1302.9,805.1 1214.6,805.1 1191.7,805.1 			"/>
			<rect x="1191.7" y="977" fill="#D3575B" width="111.3" height="194.2"/>
			<polygon fill="#D3575B" points="967.3,805.1 967.3,805.1 850.6,805.1 816.8,805.1 816.8,805.1 			"/>
			<polygon fill="#D3575B" points="967.3,805.1 830.9,949.2 712.1,949.2 712.1,977 967.3,977 			"/>
			<rect x="407.3" y="805.1" fill="#D3575B" width="42.1" height="0"/>
			<rect x="407.3" y="949.2" fill="#D3575B" width="211.8" height="27.8"/>
			<rect x="407.3" y="977" fill="#F99563" width="211.8" height="194.2"/>
			<rect x="712.1" y="977" fill="#F99563" width="255.2" height="194.2"/>
			<rect x="619.1" y="977" fill="#FFBE10" width="93" height="194.2"/>
			<rect x="619.1" y="949.2" fill="#FC9500" width="93" height="27.8"/>
			<rect x="1098.7" y="977" fill="#FFBE10" width="93" height="194.2"/>
			<rect x="1098.7" y="949.2" fill="#FC9500" width="93" height="27.8"/>
			<rect x="1145.2" y="758.6" fill="#FC9500" width="0" height="93"/>
			<path fill="#FF638D" d="M1032.6,504.5c-12.2,18.1-32.2,30.6-55.1,32.6V602c0,30.4,24.7,55.1,55.1,55.1h0
				c30.4,0,55.1-24.7,55.1-55.1v-64.9C1064.8,535,1044.8,522.6,1032.6,504.5z"/>
			<path fill="#604C9B" d="M542.8,805.1h180.7c0-25.8,20.9-46.7,46.7-46.7c10.6,0,20.3,3.5,28.2,9.5l-29.4-76.8
				c-26.4,47.8-77.3,80.1-135.7,80.1c-51,0-96.3-24.6-124.5-62.7v51.5C528.3,765.6,542.8,783.7,542.8,805.1z"/>
			<path fill="#604C9B" d="M650.5,643.1h135.3c1.5-8.7,2.3-17.6,2.3-26.7v-234l-92.2,92.2c-19.2-8.5-40.4-13.2-62.8-13.2
				s-43.6,4.7-62.8,13.2l-92.2-92.2v234c0,9.1,0.8,18.1,2.3,26.7h135.3H650.5z M716.7,552.2c17.7,0,32.1,14.4,32.1,32.1
				s-14.4,32.1-32.1,32.1s-32.1-14.4-32.1-32.1S699,552.2,716.7,552.2z M549.5,616.3c-17.7,0-32.1-14.4-32.1-32.1
				s14.4-32.1,32.1-32.1s32.1,14.4,32.1,32.1S567.2,616.3,549.5,616.3z"/>
			<path fill="#FFFFFF" d="M633.1,771.3c58.5,0,109.3-32.4,135.7-80.1c8.1-14.7,14-30.9,16.9-48.1H650.5c8.9,0,13.1,11.1,6.3,17
				l-11.1,9.6c-7.2,6.3-18,6.3-25.2,0l-11.1-9.6c-6.8-5.9-2.6-17,6.3-17H480.4c4.2,24.3,14.1,46.6,28.2,65.6
				C536.9,746.7,582.1,771.3,633.1,771.3z"/>
			<path fill="#F99563" d="M712.1,949.2h118.8l136.4-144H816.8c0,25.8-20.9,46.7-46.7,46.7s-46.7-20.9-46.7-46.7H542.8
				c0,25.8-20.9,46.7-46.7,46.7s-46.7-20.9-46.7-46.7h-42.1l-136.4,144h136.4h211.8H712.1z"/>
			<polygon fill="#F99563" points="1191.7,805.1 1098.7,805.1 967.3,805.1 1080.4,949.2 1098.7,949.2 1191.7,949.2 1302.9,949.2 
				1416,949.2 1302.9,805.1 1302.9,805.1 			"/>
			<path fill="#FF638D" d="M609.4,660l11.1,9.6c7.2,6.3,18,6.3,25.2,0l11.1-9.6c6.8-5.9,2.6-17-6.3-17h-34.8
				C606.8,643.1,602.6,654.2,609.4,660z"/>
			<path fill="#FFFFFF" d="M549.5,552.2c-17.7,0-32.1,14.4-32.1,32.1s14.4,32.1,32.1,32.1s32.1-14.4,32.1-32.1
				S567.2,552.2,549.5,552.2z M549.5,606.3c-12.2,0-22.1-9.9-22.1-22.1s9.9-22.1,22.1-22.1s22.1,9.9,22.1,22.1
				S561.7,606.3,549.5,606.3z"/>
			<path fill="#281F3B" d="M549.5,562.2c-12.2,0-22.1,9.9-22.1,22.1s9.9,22.1,22.1,22.1s22.1-9.9,22.1-22.1S561.7,562.2,549.5,562.2
				z"/>
			<path fill="#FFFFFF" d="M716.7,616.3c17.7,0,32.1-14.4,32.1-32.1s-14.4-32.1-32.1-32.1s-32.1,14.4-32.1,32.1
				S699,616.3,716.7,616.3z M716.7,562.2c12.2,0,22.1,9.9,22.1,22.1s-9.9,22.1-22.1,22.1s-22.1-9.9-22.1-22.1
				S704.6,562.2,716.7,562.2z"/>
			<path fill="#281F3B" d="M716.7,606.3c12.2,0,22.1-9.9,22.1-22.1s-9.9-22.1-22.1-22.1s-22.1,9.9-22.1,22.1
				S704.6,606.3,716.7,606.3z"/>
			<path fill="#83D3E8" d="M496.1,851.8c25.8,0,46.7-20.9,46.7-46.7c0-21.4-14.5-39.5-34.2-45c-4-1.1-8.2-1.7-12.5-1.7
				c-25.8,0-46.7,20.9-46.7,46.7v0C449.5,830.9,470.3,851.8,496.1,851.8z"/>
			<path fill="#83D3E8" d="M723.5,805.1c0,25.8,20.9,46.7,46.7,46.7s46.7-20.9,46.7-46.7v0c0-15.2-7.3-28.7-18.5-37.2
				c-7.8-5.9-17.6-9.5-28.2-9.5C744.3,758.5,723.5,779.4,723.5,805.1z"/>
			<path fill="#FFFFFF" d="M1094.3,388.8H1068c18.2,0,26.6,22.6,12.9,34.5l-22.6,19.6c-14.7,12.8-36.6,12.8-51.3,0l-22.6-19.6
				c-13.8-11.9-5.3-34.5,12.9-34.5h-26.3c-41,0-74.3,33.3-74.3,74.3c0,41,33.3,74.3,74.3,74.3c2.2,0,4.4-0.1,6.6-0.3
				c23-2,42.9-14.5,55.1-32.6c12.2,18.1,32.2,30.6,55.1,32.6c2.2,0.2,4.4,0.3,6.6,0.3c41,0,74.3-33.3,74.3-74.3
				C1168.6,422,1135.4,388.8,1094.3,388.8z"/>
			<path fill="#281F3B" d="M984.3,423.3l22.6,19.6c14.7,12.8,36.6,12.8,51.3,0l22.6-19.6c13.8-11.9,5.3-34.5-12.9-34.5h-70.8
				C979,388.8,970.6,411.4,984.3,423.3z"/>
			<path fill="#47EBF4" d="M937.4,254.3l-70.2,28c-38.7,15.4-57.3,59.6-41.2,98.1l27.2,65l24.6-55.9L937.4,254.3L937.4,254.3z"/>
			<path fill="#47EBF4" d="M1212,445.4l27.2-65c16.1-38.5-2.4-82.6-41.2-98.1l-70.2-28v0l59.6,135.2L1212,445.4z"/>
			<circle fill="#281F3B" cx="971.1" cy="336.2" r="16.9"/>
			<circle fill="#281F3B" cx="1094.1" cy="336.2" r="16.9"/>
		</g>
	</g>
</g>
</svg>
