<?xml version="1.0" encoding="utf-8"?>
<!-- Generator: Adobe Illustrator 19.2.1, SVG Export Plug-In . SVG Version: 6.00 Build 0)  -->
<svg version="1.1" id="Layer_1" xmlns="http://www.w3.org/2000/svg" xmlns:xlink="http://www.w3.org/1999/xlink" x="0px" y="0px"
	 viewBox="0 0 1400 980" style="enable-background:new 0 0 1400 980;" xml:space="preserve">
<style type="text/css">
	.st0{fill:#55B76E;}
	.st1{fill:#D9898A;}
	.st2{fill:#EDABAD;}
	.st3{fill:#1C75BC;}
	.st4{fill:#603913;}
	.st5{fill:#D1D3D4;}
	.st6{fill:#36322F;}
	.st7{fill:#AEB8B1;}
	.st8{fill:#BF5256;}
	.st9{fill:#E07477;}
	.st10{fill:#F4FCF1;}
	.st11{fill:#5D5B5E;}
	.st12{fill:#BCBEC0;}
	.st13{fill:#FFA3A6;}
	.st14{fill:#1F1C1B;}
	.st15{fill:#90D3F0;}
	.st16{fill:url(#SVGID_1_);}
	.st17{fill:#FFFFFF;}
	.st18{fill:#75C4E6;}
	.st19{fill:#00A79D;}
	.st20{fill:#122838;}
	.st21{fill:#AB663E;}
	.st22{fill:#BF7A50;}
	.st23{fill:#5C2714;}
	.st24{fill:#89391E;}
	.st25{fill:#FFADAD;}
	.st26{fill:#0A548F;}
	.st27{fill:#FF6B9C;}
	.st28{fill:#DB4F7E;}
	.st29{fill:#27AAE1;}
	.st30{fill:#E09292;}
	.st31{fill:#9FE7FF;}
	.st32{opacity:0.49;}
	.st33{fill:#00E3D5;}
	.st34{fill:#E0B445;}
	.st35{fill:#FFE356;}
	.st36{fill:#C9924C;}
	.st37{fill:#BF812E;}
	.st38{fill:#F8A232;}
	.st39{fill:#4D3412;}
	.st40{fill:#231F20;}
	.st41{fill:#C7560F;}
	.st42{fill:#9E9E9E;}
	.st43{fill:#C7C7C7;}
	.st44{fill:#DBDBDB;}
	.st45{fill:#A84A0F;}
	.st46{fill:#80380C;}
	.st47{fill:#1F0A02;}
	.st48{fill:#DE3933;}
	.st49{fill:#C47B1C;}
	.st50{fill:#A66016;}
	.st51{fill:#874D0D;}
	.st52{fill:#CCCCCC;}
	.st53{fill:#724029;}
	.st54{fill:#523112;}
	.st55{fill:#C49A6C;}
	.st56{opacity:0.8;fill:#F9F9F9;}
	.st57{fill:#36D186;}
	.st58{fill:#2DAD6E;}
	.st59{opacity:0.15;}
	.st60{fill:#F8DB6B;}
	.st61{fill:#F8E38A;}
	.st62{fill:#4A1607;}
	.st63{fill:#692108;}
	.st64{fill:#90300A;}
	.st65{fill:#292929;}
	.st66{fill:#9E5136;}
	.st67{fill:#542F1E;}
	.st68{fill:#A38360;}
	.st69{fill:url(#SVGID_2_);}
	.st70{fill:#F7941E;}
	.st71{fill:#F9ED32;}
	.st72{fill:#E6E7E8;}
	.st73{fill:#6D6E71;}
	.st74{fill:#F15A29;}
	.st75{fill:#C44318;}
	.st76{fill:#FAB980;}
	.st77{fill:#A13713;}
	.st78{fill:#541F0E;}
	.st79{fill:#FFC94D;}
	.st80{fill:#705339;}
	.st81{fill:#DBA370;}
	.st82{fill:#FAE2CF;}
	.st83{fill:#F0D0B4;}
	.st84{fill:#C99567;}
	.st85{fill:#B0825A;}
	.st86{fill:#00544F;}
	.st87{clip-path:url(#SVGID_4_);}
	.st88{fill:#415354;}
	.st89{fill:#B0FCFF;}
	.st90{fill:#57402D;}
</style>
<g>
	<rect x="0" class="st31" width="1400" height="980"/>
	<path class="st17" d="M830.4,372.5c-24.8-9.9-52.7-7.5-79.3-5.5s-54.2,3.8-79.3-5.3c-27.4-10-48.5-31.8-68.5-53
		c-14.3-15.1-32.4-32.2-52.9-35.5c-20.5-3.3-41.5,0.6-62.1,3.2c-20.6,2.6-42.4,3.8-61.5-4.3c-22.7-9.6-38.3-30.7-58.1-45.5
		c-45.6-33.9-116.1-28.2-155.7,12.6c-14.7,15.2-25.8,34.6-44.3,44.9c-25.4,14.1-57.6,6.8-83.4-6.5c-25.9-13.3-49-32-76.5-41.6
		c-2.8-1-5.7-1.8-8.7-2.6v170.5h861.9C861.9,403.9,852.6,381.4,830.4,372.5z"/>
	<path class="st17" d="M904.1,245.3c14.8-5.9,31.5-4.5,47.4-3.3c15.9,1.2,32.4,2.3,47.4-3.2c16.4-6,28.9-19,40.9-31.7
		c8.5-9,19.3-19.3,31.6-21.2c12.3-2,24.8,0.3,37.1,1.9c12.3,1.6,25.3,2.3,36.7-2.6c13.6-5.7,22.8-18.4,34.7-27.2
		c27.2-20.3,69.3-16.9,93,7.5c8.8,9.1,15.4,20.7,26.4,26.8c15.2,8.4,34.4,4,49.8-3.9c15.5-7.9,29.3-19.1,45.7-24.9
		c1.7-0.6,3.4-1.1,5.2-1.5v101.8H885.3C885.3,264.1,890.8,250.6,904.1,245.3z"/>
	<g class="st32">
		<path class="st19" d="M284.8,730.5c0-13.6-4.1-26.2-11-36.8c-3.8-5.8-5.2-12.9-3.9-19.8c0.7-3.3,1-6.8,1-10.3
			c0-11-3.4-21.3-9.1-29.7c-4.4-6.5-5.8-14.7-3.5-22.3c1.2-4,1.8-8.2,1.8-12.5c-0.1-22.9-18.7-41.6-41.6-41.9
			c-23.6-0.3-42.8,18.7-42.8,42.2c0,4.1,0.6,8.1,1.7,11.9c2.2,7.7,1.2,16-3.4,22.6c-5.8,8.5-9.2,18.7-9.2,29.8
			c0,3.6,0.4,7.2,1.1,10.6c1.4,6.8-0.1,13.8-3.9,19.5c-8.8,13.3-13,30-10.1,47.7c3.7,23.5,24.5,46.1,47.6,53.3v92.4h36.8v-92.3
			C264.3,786.8,284.8,761.1,284.8,730.5z"/>
		<path class="st33" d="M176.1,686.6c1-1,2.5-1,3.5,0l35.7,35.7v-60.6l-29.5-29.5c-1-1-1-2.5,0-3.5c1-1,2.5-1,3.5,0l26,26V592
			c0-1.4,1.1-2.5,2.5-2.5c1.4,0,2.5,1.1,2.5,2.5v68.7c0,0,0,0,0,0v24.1l31.2-31.2c1-1,2.5-1,3.5,0c1,1,1,2.5,0,3.5l-34.7,34.7V764
			l42.6-42.6c1-1,2.5-1,3.5,0c1,1,1,2.5,0,3.5l-46.1,46.1v20.5h-5v-62.2l-39.2-39.2C175.2,689.2,175.2,687.6,176.1,686.6z"/>
	</g>
	<g class="st32">
		<path class="st19" d="M1198.8,755.7c0-11.4-3.4-22-9.2-30.9c-3.2-4.9-4.4-10.9-3.3-16.6c0.6-2.8,0.8-5.7,0.8-8.7
			c0-9.3-2.8-17.8-7.7-25c-3.7-5.5-4.8-12.3-2.9-18.7c1-3.3,1.5-6.8,1.5-10.5c-0.1-19.2-15.7-34.9-34.9-35.2
			c-19.8-0.3-35.9,15.7-35.9,35.4c0,3.5,0.5,6.8,1.4,9.9c1.9,6.4,1,13.4-2.8,19c-4.8,7.1-7.7,15.7-7.7,25c0,3,0.3,6,0.9,8.9
			c1.2,5.7-0.1,11.5-3.3,16.4c-7.4,11.2-10.9,25.2-8.5,40c3.1,19.7,20.5,38.7,39.9,44.7v77.5h30.9v-77.4
			C1181.6,803,1198.8,781.4,1198.8,755.7z"/>
		<path class="st33" d="M1107.6,718.9c0.8-0.8,2.1-0.8,3,0l29.9,29.9V698l-24.8-24.8c-0.8-0.8-0.8-2.1,0-3c0.8-0.8,2.1-0.8,3,0
			l21.8,21.8v-52.6c0-1.2,0.9-2.1,2.1-2.1c1.2,0,2.1,0.9,2.1,2.1v57.6c0,0,0,0,0,0v20.2l26.2-26.2c0.8-0.8,2.1-0.8,3,0
			c0.8,0.8,0.8,2.1,0,3l-29.1,29.1v60.6l35.7-35.7c0.8-0.8,2.1-0.8,3,0c0.8,0.8,0.8,2.1,0,3l-38.7,38.7v17.2h-4.2v-52.2l-32.9-32.9
			C1106.8,721.1,1106.8,719.7,1107.6,718.9z"/>
	</g>
	<g>
		<path class="st19" d="M1389.9,655c0-22.9-6.8-44.2-18.6-61.9c-6.5-9.8-8.8-21.8-6.5-33.3c1.1-5.6,1.7-11.4,1.7-17.4
			c0-18.6-5.7-35.8-15.4-50.1c-7.5-11-9.7-24.8-5.9-37.5c2-6.7,3.1-13.7,3-21.1c-0.2-38.5-31.6-70.1-70-70.6
			c-39.7-0.5-72,31.5-72,71c0,6.9,1,13.6,2.8,20c3.8,12.9,1.9,26.9-5.6,38.1c-9.7,14.3-15.4,31.5-15.4,50.1c0,6.1,0.6,12.1,1.8,17.9
			c2.3,11.4-0.2,23.2-6.6,32.9c-14.8,22.5-21.8,50.5-17.1,80.4c6.3,39.6,41.2,77.6,80.2,89.8v155.5h62V763.3
			C1355.4,749.8,1389.9,706.4,1389.9,655z"/>
		<path class="st33" d="M1207,581.1c1.6-1.6,4.3-1.6,5.9,0l60.1,60.1V539.1l-49.7-49.7c-1.6-1.6-1.6-4.3,0-5.9
			c1.6-1.6,4.3-1.6,5.9,0l43.8,43.8V421.7c0-2.3,1.9-4.2,4.2-4.2c2.3,0,4.2,1.9,4.2,4.2v115.7c0,0,0,0,0,0v40.5l52.5-52.5
			c1.6-1.6,4.3-1.6,5.9,0c1.6,1.6,1.6,4.3,0,5.9l-58.4,58.4v121.6l71.6-71.6c1.6-1.6,4.3-1.6,5.9,0c1.6,1.6,1.6,4.3,0,5.9
			l-77.6,77.6v34.5h-8.4V653.1l-66-66C1205.4,585.4,1205.4,582.7,1207,581.1z"/>
	</g>
	<g>
		<path class="st19" d="M179.6,694.5c0-16.7-5-32.3-13.6-45.3c-4.7-7.2-6.4-15.9-4.8-24.3c0.8-4.1,1.2-8.4,1.2-12.7
			c0-13.6-4.1-26.2-11.2-36.6c-5.4-8-7.1-18.1-4.3-27.4c1.5-4.9,2.3-10,2.2-15.4c-0.2-28.1-23.1-51.2-51.2-51.6
			c-29-0.4-52.6,23-52.6,51.9c0,5.1,0.7,10,2.1,14.6c2.8,9.5,1.4,19.7-4.1,27.8c-7.1,10.4-11.3,23-11.3,36.6c0,4.5,0.5,8.8,1.3,13
			c1.7,8.3-0.2,16.9-4.9,24c-10.8,16.4-15.9,36.9-12.5,58.7c4.6,28.9,30.1,56.7,58.6,65.6v113.6H120V773.6
			C154.4,763.8,179.6,732.1,179.6,694.5z"/>
		<path class="st33" d="M46,640.5c1.2-1.2,3.1-1.2,4.3,0l43.9,43.9v-74.6L58,573.5c-1.2-1.2-1.2-3.1,0-4.3c1.2-1.2,3.1-1.2,4.3,0
			l32,32v-77.1c0-1.7,1.4-3.1,3.1-3.1c1.7,0,3.1,1.4,3.1,3.1v84.5c0,0,0,0,0,0v29.6l38.4-38.4c1.2-1.2,3.1-1.2,4.3,0
			c1.2,1.2,1.2,3.1,0,4.3l-42.7,42.7v88.9l52.3-52.3c1.2-1.2,3.1-1.2,4.3,0c1.2,1.2,1.2,3.1,0,4.3l-56.7,56.7v25.2h-6.1v-76.5
			L46,644.9C44.8,643.7,44.8,641.7,46,640.5z"/>
	</g>
	<g>
		<g>
			<rect x="741.1" y="259.8" class="st34" width="8.5" height="94.2"/>
			<rect x="760.6" y="259.8" class="st34" width="8.5" height="94.2"/>
			<path class="st35" d="M810.6,209.6v-25.4c-5.7-24.3-40.5-29.5-54.3-17.1c-13.6,12.2-15.2,21.9-12.8,44.3l-84,75.5
				c33.6,26.4,88.3,26.8,117.3,6.6c21.3-14.8,31-44.5,24.8-73.1C804.6,217.3,808.7,213.3,810.6,209.6z"/>
			<path class="st36" d="M744.2,211.3h-0.7l-93.7,84.2c6.7,7.4,68.5,21.9,107-9.7C799.8,250.4,769.2,211.3,744.2,211.3z"/>
			<path class="st37" d="M744.2,211.3h-0.7l-81.4,73.3c31.9,8.6,64.8,8,93.3-9c11.9-7.1,17.6-14.9,22.5-21.7
				C781.8,230.3,761.7,211.3,744.2,211.3z"/>
			<polygon class="st38" points="836.3,196.8 810.6,184.2 810.6,209.5 			"/>
			<circle class="st39" cx="794.8" cy="184.2" r="5.2"/>
		</g>
		<g>
			<g>
				<path class="st17" d="M1028.8,837.2c0,0,0.4-0.1,1.1-0.2c0.4-0.1,0.8-0.1,1.3-0.2c0.5-0.1,1.1-0.2,1.9-0.3
					c3.2-0.6,7.6-1.6,13.2-3.3c1.4-0.4,2.9-0.9,4.4-1.5c1.5-0.6,3.1-1.2,4.8-1.9c3.3-1.4,6.9-3.1,10.6-5.2
					c7.4-4.2,15.4-10.1,22.7-18.1c1.8-2,3.6-4.1,5.3-6.4c1.7-2.2,3.3-4.6,4.9-7.1c3.1-4.9,5.8-10.3,8-15.9
					c4.6-11.3,7.2-23.7,8.3-36.4c0.5-6.3,0.6-12.9,0.4-19.2l0-1.2l0-0.6l0-0.1l0-0.5l0-0.3l-0.2-2.2c-0.1-1-0.2-2.1-0.4-3.2
					l-0.4-2.8c-0.6-3.7-1.5-7.4-2.6-11c-2.2-7.2-5.2-14-8.9-20.3c-1.8-3.2-3.8-6.2-5.9-9.1c-2.1-2.9-4.3-5.7-6.6-8.4
					c-9.2-10.7-19.9-19.6-30.9-27c-1.1-0.8-2.3-1.6-3.4-2.3l-1.4-1c-0.5-0.3-1-0.7-1.5-1.1c-2-1.5-4-3-5.9-4.6
					c-3.8-3.1-7.3-6.4-10.4-9.7c-3.1-3.3-5.9-6.7-8.2-10.1c-2.3-3.4-4.1-6.7-5.3-9.8c-1.3-3.1-1.9-5.8-2.1-8
					c-0.2-2.2,0.1-3.6,0.4-4.3c0.3-0.7,0.5-0.9,1-1.3c0.2-0.2,0.5-0.5,0.9-0.8c0.2-0.1,0.4-0.3,0.7-0.5c0.2-0.2,0.6-0.3,0.9-0.5
					c1.3-0.7,2.9-1.5,4.8-2.2c1.8-0.7,3.8-1.3,5.7-1.8c3.9-1.1,7.5-1.9,10-2.5c1.3-0.4,2.3-0.6,3-0.8c0.7-0.2,1.1-0.3,1.1-0.3
					l1.7-0.6c7.2-2.5,10.9-10.4,8.4-17.5c-0.8-2.2-2.1-4.1-3.7-5.6c0,0-0.3-0.3-1-0.9c-0.7-0.6-1.7-1.4-3.2-2.3
					c-2.9-1.9-7.3-4.3-13.8-6.1c-3.3-0.9-7.1-1.6-11.5-1.8c-4.4-0.2-9.5,0.2-15.1,1.7c-2.8,0.8-5.7,1.9-8.7,3.4c-3,1.5-6,3.5-8.8,6
					c-2.8,2.5-5.5,5.4-7.8,8.7c-2.3,3.3-4.2,7-5.5,10.8c-1.4,3.8-2.3,7.8-2.7,11.7c-0.4,3.9-0.4,7.7-0.1,11.4
					c0.3,3.7,1,7.3,1.9,10.7c0.9,3.5,2.1,6.8,3.4,9.9c5.4,12.7,13.5,23.5,22.6,32.9c4.6,4.7,9.5,9.1,14.7,13.1c2.6,2,5.2,4,7.9,5.8
					c0.7,0.5,1.4,1,2.1,1.4l2.1,1.4c1.3,0.8,2.6,1.7,3.9,2.5c8.6,5.3,16.5,11.7,23,18.8c6.5,7.1,11.6,14.9,14.3,22.9
					c0.7,2,1.3,4,1.7,6l0.3,1.5c0.1,0.4,0.1,0.8,0.2,1.1l0.2,2.1l0,0.3c0,0.4,0-0.4,0-0.2l0,0.1l0.1,0.5l0.1,1
					c0.5,5.1,0.8,9.9,0.7,14.7c0,4.8-0.4,9.4-1,13.8c-0.6,4.4-1.6,8.7-2.7,12.6c-2.4,7.9-5.8,14.8-10,20.5
					c-4.1,5.7-8.9,10.3-13.7,13.9c-4.8,3.6-9.6,6.3-13.6,8.2c-4.1,2-7.6,3.3-9.7,4.1c-0.5,0.2-1.2,0.4-1.6,0.6
					c-0.5,0.2-0.9,0.3-1.3,0.4c-0.7,0.2-1,0.4-1,0.4c-6.4,2.2-9.9,9.2-7.7,15.6C1017.1,834.7,1023,838.1,1028.8,837.2z"/>
				<path class="st40" d="M983.6,612.8c-1.4-3.2-2.5-6.5-3.4-9.9c-0.9-3.5-1.6-7-1.9-10.7c-0.3-3.7-0.4-7.5,0.1-11.4
					c0.4-3.9,1.3-7.8,2.7-11.7c1.4-3.8,3.3-7.5,5.5-10.8c2.3-3.3,5-6.2,7.8-8.7c2.8-2.5,5.8-4.5,8.8-6c3-1.5,5.9-2.6,8.7-3.4
					c5.6-1.6,10.7-1.9,15.1-1.7c4.4,0.2,8.2,0.9,11.5,1.8c6.5,1.8,10.9,4.2,13.8,6.1c1.4,0.9,2.5,1.7,3.2,2.3c0.7,0.6,1,0.9,1,0.9
					c1.6,1.5,2.9,3.4,3.7,5.6c2.5,7.2-1.2,15-8.4,17.5l-1.7,0.6c0,0-0.4,0.1-1.1,0.3c-0.7,0.2-1.7,0.4-3,0.8
					c-2.6,0.6-6.2,1.5-10,2.5c-1.9,0.5-3.9,1.1-5.7,1.8c-1.8,0.7-3.5,1.4-4.8,2.2c-0.3,0.2-0.6,0.3-0.9,0.5
					c-0.3,0.1-0.5,0.3-0.7,0.5c-0.4,0.3-0.7,0.6-0.9,0.8c-0.5,0.4-0.7,0.6-1,1.3c-0.3,0.7-0.6,2.1-0.4,4.3c0.2,2.2,0.8,4.9,2.1,8
					c1.2,3.1,3,6.4,5.3,9.8c2.3,3.4,5,6.8,8.2,10.1c1.8,2,3.8,3.9,5.9,5.8c-7.8,4.2-16.4,6.9-25.1,8c-8.1,1-16.9,0.8-25.4-0.7
					C989.1,624,986.1,618.6,983.6,612.8z"/>
				<path class="st41" d="M1077.6,734.4c-0.1-3.4-0.3-6.8-0.7-10.4l-0.1-1l-0.1-0.5l0-0.1c0-0.1,0,0.6,0,0.2l0-0.3l-0.2-2.1
					c-0.1-0.4-0.1-0.8-0.2-1.1l-0.3-1.5c-0.4-2-1-4-1.7-6c-2.8-8-7.8-15.8-14.3-22.9c-6.5-7.1-14.4-13.4-23-18.8
					c-0.7-0.4-1.3-0.8-2-1.3c5.6-0.7,11.6-1,17.1-1.8c7.2-1.1,14.7-1.9,21.9-0.2c11.1,2.6,20.5,11.2,24.5,21.9
					c4,10.7,2.7,23.1-3.1,32.9C1091.6,728,1085,733.7,1077.6,734.4z"/>
			</g>
			<path class="st42" d="M864.2,818.5h20.4c-15.8-15.1-30-72.5,15.9-85.4c66-18.6,97.1,110.5,97.1,110.5h-61.4h-31h-50.5
				c-4.3,0-7.8-3.5-7.8-7.8v0C846.9,826.2,854.6,818.5,864.2,818.5z"/>
			<path class="st43" d="M824.6,827V652.7h49.1l-9.4,190.9h-2h-37.7h-6.5c-0.9,0-1.6-0.7-1.6-1.6C816.6,835.8,819.8,830.3,824.6,827
				z"/>
			<path class="st17" d="M930.7,843.6c-16.1-101.7-107-75.8-107-209.6c0-29.5,87.1-29.5,101.7,4.9c8.7,20.6,24.8,34.7,57.4,50.5
				c79.4,38.6,87.5,80.2,87.5,154.2H930.7z"/>
			<path class="st40" d="M824.6,726.1c0.9,0.9,1.8,2.3,2.9,3.7c6,7.2,11.6,14.7,15.4,23.3c4.9,11.2,6.1,24.5,0.4,35.3
				c-3.7,7-10.2,12.4-17.8,14.7c-0.3,0.1-0.6,0.2-0.9,0.3V726.1z"/>
			<path class="st44" d="M978,837.3l23.7-21.2c0,0-8-47-43.5-73.3c-24,15.2-25.4,50.3-25.4,50.3l-9.5-99l-19.5,46l1.4,44.1
				c11.1,13.7,20.3,30.6,24.8,55.5L978,837.3z"/>
			<path class="st17" d="M938.6,818.9h20.1c-15.6-14.9-29.5-71.3,15.6-84.1c64.9-18.3,95.6,108.8,95.6,108.8h-60.4H979h-49.7
				c-4.2,0-7.7-3.4-7.7-7.7v0C921.5,826.5,929.2,818.9,938.6,818.9z"/>
			<path class="st40" d="M982.7,689.4c6,2.9,11.6,5.8,16.8,8.8c-11,6.8-24.2,10.3-37.2,9.5c-8-0.5-16.2-2.7-21.9-8.3
				c-6.4-6.4-8.4-16.2-7.3-25.2c0.7-5.5,2.3-10.7,4.4-15.9C947.3,669.4,961.5,679,982.7,689.4z"/>
			<path class="st41" d="M1034.9,801.9c5.9-3,11-7.6,14.8-13.1c-14.5-29.4-36.8-58.9-67.6-55.5c-2.2,1.8-4.2,3.8-5.8,6.6
				c-3.8,6.5-5.4,14.2-5.1,21.7c0.4,15,8.4,29.6,20.9,37.8C1004.7,807.5,1021.6,808.6,1034.9,801.9z"/>
			<path class="st41" d="M1015.1,814.7c-1.6,1-3,2.3-4,3.9c-1,1.6-1.3,3.6-0.7,5.4c1,2.8,4.3,4.2,7.2,4.9c3.5,0.8,7,1.3,10.5,1.4
				c3.2,0.1,6.7-0.3,9.2-2.4c1.9-1.6,2.9-4.2,3.2-6.7c0.8-7.1-1.3-9.5-8.2-10.4C1026.3,810,1020.1,811.4,1015.1,814.7z"/>
			<path class="st44" d="M891.2,769.2l-8.9-92l-29.7,7.1l10.3,58.6C872.1,752.1,881.9,760.2,891.2,769.2z"/>
			<path class="st17" d="M878.1,830.2l-1.8-177.5h49.1l-8.7,177.7c2.7,3.1,4.3,7.2,4.3,11.7c0,0.9-0.7,1.6-1.6,1.6H916h-39.7h-1.1
				c-0.9,0-1.6-0.7-1.6-1.6C873.7,838.6,874.5,834.7,878.1,830.2z"/>
			<path class="st41" d="M904.9,691.8c-4.7,7.6-6.4,17-4.7,25.7c1.1,5.8,3.7,11.3,4.4,17.1c0.8,6.5-0.8,13.1-0.2,19.6
				s4.7,13.6,11.2,14.2c1.4,0.1,2.7-0.1,4-0.5l4.5-90.8C917.1,676.9,908.1,686.7,904.9,691.8z"/>
			<path class="st44" d="M927.9,644.3c-0.9-1.8-1.8-3.5-2.5-5.4c-14.6-34.4-101.7-34.4-101.7-4.9c0,20.2,2.1,36.8,5.7,50.7
				C898.9,707.1,927.9,644.3,927.9,644.3z"/>
			<g>
				<g>
					<g>
						<path class="st45" d="M787.8,585.3c-12-12.1-12.7-31.1-11.9-39.7c0.3-3.3,1.7-4.7,5-5c8.6-0.7,27.6,0.1,39.6,12.1
							c16.1,16.2,9.6,24.2,0.5,33.2C812,595,804.4,602,787.8,585.3z"/>
						<path class="st46" d="M792.4,581.8c-6.6-6.6-6.9-17.1-6.5-21.8c0.2-1.8,0.9-2.6,2.7-2.7c4.7-0.4,15.2,0,21.7,6.7
							c8.8,8.9,5.2,13.3,0.3,18.2C805.6,587.1,801.5,590.9,792.4,581.8z"/>
					</g>
				</g>
				<g>
					<g>
						<path class="st45" d="M933.1,570.5c9.3-14.2,6.1-33,3.7-41.3c-0.9-3.1-2.6-4.3-5.9-3.9c-8.5,1.1-27,5.7-36.3,19.9
							c-12.5,19.1-4.5,25.7,6.2,32.6S920.2,590.2,933.1,570.5z"/>
						<path class="st46" d="M927.8,567.9c5.1-7.8,3.3-18.1,2-22.6c-0.5-1.7-1.5-2.3-3.2-2.1c-4.7,0.6-14.8,3.1-19.9,10.9
							c-6.9,10.5-2.4,14.1,3.4,17.9C915.9,575.8,920.8,578.7,927.8,567.9z"/>
					</g>
				</g>
				<path class="st17" d="M787.2,606.5c4.3,42.3,42,72,84.4,67.7c42.3-4.3,73.3-41,68.9-83.4c-4.3-42.3-39.4-45.8-81.7-41.4
					C816.5,553.7,782.9,564.2,787.2,606.5z"/>
				<path class="st41" d="M858.9,549.4c-42.3,4.3-76,14.8-71.6,57.1c1.6,15.2,7.4,28.7,16.2,39.6c22.6-4,49.7-22.1,54.9-51.7
					C861.8,574.1,858.9,549.4,858.9,549.4z"/>
				
					<ellipse transform="matrix(0.9948 -0.1017 0.1017 0.9948 -57.2009 86.7786)" class="st47" cx="822.2" cy="604.2" rx="8.8" ry="8.8"/>
				
					<ellipse transform="matrix(0.9948 -0.1017 0.1017 0.9948 -55.9375 94.9789)" class="st47" cx="903.2" cy="595.9" rx="8.8" ry="8.8"/>
				<g>
					<path class="st44" d="M848.4,630.8c6.6-1.4,15.2-1.6,19.4,1.7c3.4-4.1,11.9-5.6,18.6-5.6c7.4,0.1,14.1,5.5,14.9,14
						c0.9,8.5-4.4,15.9-11.8,16.7c-4,0.4-8.1-1-11.6-3.4c-4.9-3.3-11.6-2.7-15.8,1.6c-3,3-6.6,5.2-10.7,5.7
						c-7.4,0.8-14.1-5.5-14.9-14S841.2,632.4,848.4,630.8z"/>
					<path class="st48" d="M856.2,630.7c0.3,3.3,6,7.8,12.4,7.2c6.4-0.6,11-6.2,10.7-9.5c-0.3-3.3-5.5-3.1-11.9-2.5
						C861,626.5,855.9,627.4,856.2,630.7z"/>
				</g>
			</g>
		</g>
		<g>
			<path class="st49" d="M397.3,844.2c0,0-112.7-0.6-158-56.8c-42.7-53-35-151,66-206.2c-13,57.9-54.3,172.9,76.3,192.9
				S397.3,844.2,397.3,844.2z"/>
			<path class="st50" d="M327.8,755.7c-10.1,18.8-20.6,44-24.2,72.5c45.9,15.7,93.7,15.9,93.7,15.9s24.8-10.8,38.3-24.4l2.1-27.7
				c-8.3-7-25.4-13.3-56.1-18C358.8,770.6,341.2,764.2,327.8,755.7z"/>
			<g>
				<path class="st51" d="M696.6,799.4H664c4.3-26.7,7.5-60.9,2.6-89.8c-9.7-57.1-87-7-130.8,43.2s-16.8,91.4-16.8,91.4h108.3h27.4
					H711c7.8,0,14.2-6.6,14.2-14.8l0,0C725.1,812.8,712.4,799.4,696.6,799.4z"/>
			</g>
			<g>
				<path class="st49" d="M749.5,815.4h-0.5l-19.6-341.1h-69.6l34.4,364.1c0.3,3.2,3,5.7,6.3,5.7h2.4h47.7h12.1
					c4.2,0,7.7-3.3,7.8-7.5C770.7,824.9,761.2,815.4,749.5,815.4z"/>
			</g>
			<path class="st50" d="M675.7,641.7l9.5,101.1c30.6-20,46.7-66.7,54.1-96.2l-3.9-68.1L675.7,641.7z"/>
			<path class="st17" d="M558.7,844.2c16.6-41.6,63-108.9,94.2-132.9c115.2-88.5,89.4-147.4,66.3-209.9
				C688.3,417.9,572,464.8,479,570.7c-76,86.4-103.8,157.4-119.2,214.2c-5.4,19.9-0.6,41.5,25.2,59.2H558.7z"/>
			<path class="st52" d="M483.9,689.3l-25.2,154.8h100c5.9-14.8,15.6-32.8,27-51c-5.9-2.5-12.8-4.5-20.5-4.9
				C571.8,637.2,483.9,689.3,483.9,689.3z"/>
			<path class="st52" d="M719.2,501.4c-12.7-34.3-39.8-46.6-73.7-41.8l-37.6,18.9c0,0,21.5,139.1,68.5,157.6
				c20.7,8.1,36.8,4.8,48.5-1.6C751.9,584.8,734.9,543.9,719.2,501.4z"/>
			<g>
				<path class="st49" d="M662.9,818.1l-19.6-319.8l-67.1,24.9l32.4,320.9h55.9h1.3c4.3,0,7.8-3.5,7.8-7.8
					C673.6,828.5,669.3,821.7,662.9,818.1z"/>
			</g>
			<path class="st53" d="M510.7,764.2C538,702,621.3,636,652.9,570.7c22-45.3,8.7-89.2-1.5-111.8c-49.5,4-115.4,46.8-172.5,111.8
				c-15.4,17.6-28.9,34.5-40.6,50.8c-1.8,2.5-3.6,5-5.3,7.5c-0.9,1.2-1.7,2.5-2.6,3.7c-6.8,9.8-12.9,19.5-18.5,28.8
				c-0.7,1.2-1.4,2.3-2.1,3.5c-1.4,2.3-2.7,4.6-4,6.9c-2,3.5-3.8,6.9-5.6,10.3c-2.4,4.5-4.7,9-6.9,13.4c-1.1,2.2-2.2,4.4-3.2,6.6
				c-9.8,20.6-17.2,39.9-23,58c-1.2,3.8-2.4,7.5-3.5,11.2c-0.5,1.8-1.1,3.7-1.6,5.5c-0.8,2.7-1.5,5.4-2.3,8.1
				c-0.5,1.9-0.9,3.7-1.2,5.6c-0.2,1.3-0.4,2.5-0.5,3.8c-0.1,0.6-0.1,1.3-0.1,1.9c-0.6,9.7,1.7,19.6,7.9,29.1c0.7,1,1.4,2.1,2.2,3.1
				c3.7,4.9,8.5,9.6,14.7,14.1c0.8,0.6,1.5,1.1,2.4,1.7h103.4C488.4,844.2,483.4,826.4,510.7,764.2z"/>
			<g>
				<path class="st49" d="M510.7,764.2C538,702,621.3,636,652.9,570.7c22-45.3,8.7-89.2-1.5-111.8c-49.5,4-115.4,46.8-172.5,111.8
					c-15.4,17.6-28.9,34.5-40.6,50.8c-1.8,2.5-3.6,5-5.3,7.5c-0.9,1.2-1.7,2.5-2.6,3.7c-6.8,9.8-12.9,19.5-18.5,28.8
					c-0.7,1.2-1.4,2.3-2.1,3.5c-1.4,2.3-2.7,4.6-4,6.9c-2,3.5-3.8,6.9-5.6,10.3c-2.4,4.5-4.7,9-6.9,13.4c-1.1,2.2-2.2,4.4-3.2,6.6
					c-9.8,20.6-17.2,39.9-23,58c-1.2,3.8-2.4,7.5-3.5,11.2c-0.5,1.8-1.1,3.7-1.6,5.5c-0.8,2.7-1.5,5.4-2.3,8.1
					c-0.5,1.9-0.9,3.7-1.2,5.6c-0.2,1.3-0.4,2.5-0.5,3.8c-0.1,0.6-0.1,1.3-0.1,1.9c-0.6,9.7,1.7,19.6,7.9,29.1
					c0.7,1,1.4,2.1,2.2,3.1c3.7,4.9,8.5,9.6,14.7,14.1c0.8,0.6,1.5,1.1,2.4,1.7h103.4C488.4,844.2,483.4,826.4,510.7,764.2z"/>
			</g>
			<g>
				<path class="st49" d="M510.7,764.2C538,702,621.3,636,652.9,570.7c22-45.3,8.7-89.2-1.5-111.8c-49.5,4-115.4,46.8-172.5,111.8
					c-15.4,17.6-28.9,34.5-40.6,50.8c-1.8,2.5-3.6,5-5.3,7.5c-0.9,1.2-1.7,2.5-2.6,3.7c-6.8,9.8-12.9,19.5-18.5,28.8
					c-0.7,1.2-1.4,2.3-2.1,3.5c-1.4,2.3-2.7,4.6-4,6.9c-2,3.5-3.8,6.9-5.6,10.3c-2.4,4.5-4.7,9-6.9,13.4c-1.1,2.2-2.2,4.4-3.2,6.6
					c-9.8,20.6-17.2,39.9-23,58c-1.2,3.8-2.4,7.5-3.5,11.2c-0.5,1.8-1.1,3.7-1.6,5.5c-0.8,2.7-1.5,5.4-2.3,8.1
					c-0.5,1.9-0.9,3.7-1.2,5.6c-0.2,1.3-0.4,2.5-0.5,3.8c-0.1,0.6-0.1,1.3-0.1,1.9c-0.6,9.7,1.7,19.6,7.9,29.1
					c0.7,1,1.4,2.1,2.2,3.1c3.7,4.9,8.5,9.6,14.7,14.1c0.8,0.6,1.5,1.1,2.4,1.7h103.4C488.4,844.2,483.4,826.4,510.7,764.2z"/>
			</g>
			<g>
				<path class="st53" d="M591,478.5c-36.6,19.2-76.1,51.3-112.1,92.2c-15.4,17.6-28.9,34.5-40.6,50.8c-1.8,2.5-3.6,5-5.3,7.5
					c-0.9,1.2-1.7,2.5-2.6,3.7c-6.8,9.8-12.9,19.5-18.5,28.8c-0.7,1.2-1.4,2.3-2.1,3.5c-1.4,2.3-2.7,4.6-4,6.9
					c-2,3.5-3.8,6.9-5.6,10.3c-2.4,4.5-4.7,9-6.9,13.4c-1.1,2.2-2.2,4.4-3.2,6.6c-3.1,6.4-5.9,12.8-8.5,19
					c44.7-12.8,91.6-41.9,131.4-84.8C558.9,586.9,585.7,529.4,591,478.5z"/>
			</g>
			<g>
				<path class="st50" d="M651.1,459c-1.2,0.1-2.5,0.2-3.8,0.4c-0.3,0-0.7,0.1-1,0.1c-0.3,0-1.7-3.9-2-3.9l-38.7,15.9
					c0,0,15.7,94.2,44.7,139.7l-1.9-31.6c1.6-3,3.2-5.9,4.6-8.9c22-45.3,8.7-89.2-1.5-111.8C651.3,458.9,651.2,459,651.1,459z"/>
			</g>
			<g>
				<g>
					<path class="st49" d="M714.8,333.5l-82.9-4.8l3.3,192.7c0.6,33.9,23.5,62.4,55.1,68.7c31.7,6.2,63.7-11.6,77-42.8l75.9-177.1
						l-78.5-26.8C748.7,337.8,731.9,334.5,714.8,333.5z"/>
				</g>
				<g>
					<path class="st53" d="M796.3,354.1l79.3,27.2c10.5,3.6,14.1,16.6,7.1,25.1l-52.2,63c-9.2,11.1-27.2,5.2-28-9.2L796.3,354.1z"/>
				</g>
				<g>
					<path class="st53" d="M680.8,331.5l-83.7-4.8c-11.1-0.6-19.3,10-16,20.6l24.5,78c4.3,13.7,23.2,15.1,29.4,2.1L680.8,331.5z"/>
				</g>
				<path class="st17" d="M772.6,535.4c-7-16.8-33.2-26.3-65.1-32.6c-31.7-6.2-59.4-7.3-72.4,5.3l0.2,13.3
					c0.6,33.9,23.5,62.4,55.1,68.7c31.7,6.2,63.7-11.6,77-42.8L772.6,535.4z"/>
				<path class="st17" d="M753.6,339.9c-9-2.5-18.1-4.2-27.4-5.4c-8.2,28.2-13.7,57.1-16.6,86.3l-14,142l40.7-136.8
					C744.8,397.9,750.5,369,753.6,339.9z"/>
				
					<ellipse transform="matrix(0.1927 -0.9813 0.9813 0.1927 115.4098 1009.1895)" class="st54" cx="671" cy="434.5" rx="12" ry="12"/>
				
					<ellipse transform="matrix(0.1927 -0.9813 0.9813 0.1927 173.8664 1117.5793)" class="st54" cx="766.1" cy="453.1" rx="12" ry="12"/>
				<path class="st54" d="M726.3,515.6c-2,10.1-12.8,16.5-24.2,14.2s-19-12.2-17-22.3c2-10.1,11.3-8.8,22.7-6.5
					S728.3,505.5,726.3,515.6z"/>
			</g>
			<path class="st50" d="M551.7,702.1c-23.3-39.2-67.8-12.8-67.8-12.8l-25.2,154.8h29.8c0,0-5.1-17.8,22.3-80
				C519.6,743.9,534.5,723.1,551.7,702.1z"/>
			<g>
				<path class="st49" d="M562.5,799.4H530c4.3-26.7,7.5-60.9,2.6-89.8c-9.7-57.1-87-7-130.8,43.2s-16.8,91.4-16.8,91.4h108.3h27.4
					h56.4c7.8,0,14.2-6.6,14.2-14.8l0,0C591.1,812.8,578.3,799.4,562.5,799.4z"/>
			</g>
			<path class="st53" d="M217.9,687.4c18.9,7.8,40.2,9.6,60.1,4.8c3.8-0.9,7.6-2.1,11.3-3.5c-3.3-37.7,9.7-79.3,16-107.5
				C253.8,609.3,226.5,648.6,217.9,687.4z"/>
		</g>
	</g>
	<rect x="0" y="844.2" class="st55" width="1400" height="135.8"/>
</g>
</svg>
